<svg width="1440" height="1378" viewBox="0 0 1440 1378" fill="none" xmlns="http://www.w3.org/2000/svg">
<path d="M498.824 529.731L506.988 517.659L487.851 494.085L479.688 506.157L498.824 529.731Z" fill="#32F0BE"/>
<path d="M723.795 789.666L731.848 780.696L720.045 767.591L711.992 776.561L723.795 789.666Z" fill="#CAB8FF"/>
<path d="M312.693 791.319L321.52 786.194L312.99 753.633L304.162 758.758L312.693 791.319Z" fill="#32F0BE"/>
<path d="M58.9843 1206.22L67.2178 1203.02L61.4051 1167.29L53.1716 1170.48L58.9843 1206.22Z" fill="#FCFFA6"/>
<path d="M971.794 796.154L980.869 792.878L974.231 767.88L965.156 771.156L971.794 796.154Z" fill="#32F0BE"/>
<path d="M405.211 475.253L412.527 467.093L391.833 444.112L384.517 452.272L405.211 475.253Z" fill="#FCFFA6"/>
<path d="M493.809 997.063L498.595 1004.77L508.67 990.996L503.883 983.292L493.809 997.063Z" fill="#FCFFA6"/>
<path d="M153.915 1018.27L161.238 1019.39L163.338 1004.89L156.014 1003.78L153.915 1018.27Z" fill="#32F0BE"/>
<path d="M724.065 843.933L733.548 842.047L730.552 814.751L721.069 816.637L724.065 843.933Z" fill="#FCFFA6"/>
<path d="M1237.38 362.3L1247.13 360.092L1244.42 348.575L1234.67 350.783L1237.38 362.3Z" fill="#32F0BE"/>
<path d="M1177.6 597.18L1185.65 591.314L1170.33 574.282L1162.28 580.148L1177.6 597.18Z" fill="#32F0BE"/>
<path d="M1138.96 116.886L1133.22 105.289L1118.48 116.975L1124.23 128.572L1138.96 116.886Z" fill="#32F0BE"/>
<path d="M1274.2 1043.33L1276.35 1027.31L1251.66 1016.12L1249.52 1032.14L1274.2 1043.33Z" fill="#32F0BE"/>
<path d="M1068.18 1286.14L1061.52 1280.77L1055.43 1290.17L1062.09 1295.54L1068.18 1286.14Z" fill="#32F0BE"/>
<path d="M1334.23 701.725L1335.36 690.588L1321.35 684.607L1320.22 695.745L1334.23 701.725Z" fill="#FCFFA6"/>
<path d="M475.144 166.031L482.058 157.234L465.572 138.206L458.659 147.003L475.144 166.031Z" fill="#32F0BE"/>
<path d="M500.044 1149.89L503.177 1140.92L487.554 1130.63L484.422 1139.61L500.044 1149.89Z" fill="#32F0BE"/>
<path d="M942.58 506.341L952.532 511.48L967.135 488.803L957.183 483.663L942.58 506.341Z" fill="#FCFFA6"/>
<path d="M599.151 584.65L599.674 576.197L590.81 576.382L590.287 584.835L599.151 584.65Z" fill="#32F0BE"/>
<path d="M972.577 253.428L981.112 244.878L967.425 230.701L958.891 239.252L972.577 253.428Z" fill="#CAB8FF"/>
<path d="M943.973 985.557L954.231 980.052L943.185 945.071L932.927 950.577L943.973 985.557Z" fill="#32F0BE"/>
<path d="M256.696 996.233L265.093 1001.87L274.92 975.538L266.524 969.897L256.696 996.233Z" fill="#FCFFA6"/>
<path d="M880.376 1294.32L885.089 1287.05L864.221 1274.47L859.508 1281.75L880.376 1294.32Z" fill="#32F0BE"/>
<path d="M1234.75 1307.9L1238.85 1299.69L1221.53 1285.23L1217.43 1293.43L1234.75 1307.9Z" fill="#32F0BE"/>
<path d="M369.095 783.338L379.306 774.243L364.012 741.765L353.802 750.86L369.095 783.338Z" fill="#32F0BE"/>
<path d="M634.22 1233.56L626.696 1223.36L608.267 1252.98L615.791 1263.18L634.22 1233.56Z" fill="#32F0BE"/>
<path d="M268.134 692.801L267.372 684.024L248.461 685.946L249.223 694.722L268.134 692.801Z" fill="#FCFFA6"/>
<path d="M385.744 108.572L384.385 99.0138L373.366 100.549L374.725 110.107L385.744 108.572Z" fill="#32F0BE"/>
<path d="M505.526 281.632L513.974 279.428L509.553 255.01L501.105 257.214L505.526 281.632Z" fill="#32F0BE"/>
<path d="M246.374 230.195L251.795 219.746L238.003 210.911L232.582 221.359L246.374 230.195Z" fill="#32F0BE"/>
<path d="M1302.26 816.431L1302.71 805.855L1285.65 802.249L1285.19 812.825L1302.26 816.431Z" fill="#32F0BE"/>
<path d="M1171.02 1004.45L1177.35 993.975L1162.97 984.363L1156.64 994.836L1171.02 1004.45Z" fill="#FCFFA6"/>
<path d="M481.359 458.032L475.341 444.64L463.764 454.818L469.782 468.209L481.359 458.032Z" fill="#32F0BE"/>
<path d="M864.11 958.371L871.427 948.633L849.917 939.758L842.601 949.496L864.11 958.371Z" fill="#FCFFA6"/>
<path d="M610.444 478.78L622.021 486.859L642.146 454.805L630.568 446.726L610.444 478.78Z" fill="#32F0BE"/>
<path d="M371.424 596.209L369.122 586.655L349.492 596.853L351.794 606.407L371.424 596.209Z" fill="#32F0BE"/>
<path d="M279.001 1264.7L285.025 1268.38L291.711 1254.46L285.687 1250.78L279.001 1264.7Z" fill="#CAB8FF"/>
<path d="M701.815 1284.25L708.921 1280.54L698.86 1269.34L691.754 1273.05L701.815 1284.25Z" fill="#32F0BE"/>
<path d="M427.895 609.935L421.805 599.727L392.294 615.557L398.384 625.766L427.895 609.935Z" fill="#CAB8FF"/>
<path d="M681.787 85.5849L681.897 74.271L675.186 73.132L675.075 84.4459L681.787 85.5849Z" fill="#FCFFA6"/>
<path d="M755.981 958.977L757.691 947.53L745.305 942.222L743.595 953.669L755.981 958.977Z" fill="#FCFFA6"/>
<path d="M943.66 739.518L955.151 731.472L935.362 697.514L923.871 705.559L943.66 739.518Z" fill="#32F0BE"/>
<path d="M166.148 844.18L166.934 829.444L133.53 829.378L132.745 844.114L166.148 844.18Z" fill="#CAB8FF"/>
<path d="M574.178 1009.88L582.646 1016.19L589.863 1000.33L581.395 994.016L574.178 1009.88Z" fill="#32F0BE"/>
<path d="M1035.87 772.5L1036.94 762.087L1004.88 759.199L1003.8 769.612L1035.87 772.5Z" fill="#32F0BE"/>
<path d="M108.038 604.782L115.443 601.905L109.384 578.365L101.98 581.242L108.038 604.782Z" fill="#32F0BE"/>
<path d="M736.82 520.712L748.674 529.053L773.465 501.474L761.611 493.133L736.82 520.712Z" fill="#32F0BE"/>
<path d="M124.238 821.679L117.652 810.898L103.563 825.996L110.148 836.777L124.238 821.679Z" fill="#32F0BE"/>
<path d="M1262.22 1068.08L1273.69 1064.66L1265.48 1047.21L1254.01 1050.62L1262.22 1068.08Z" fill="#FCFFA6"/>
<path d="M772.864 813.55L782.914 805.117L770.884 787.909L760.833 796.342L772.864 813.55Z" fill="#32F0BE"/>
<path d="M690.066 788.083L693.054 778.982L683.03 774.38L680.043 783.481L690.066 788.083Z" fill="#CAB8FF"/>
<path d="M1306 864.3L1316.29 857.599L1311.2 842.715L1300.91 849.416L1306 864.3Z" fill="#32F0BE"/>
<path d="M249.445 576.719L260.312 585.83L270.286 572.613L259.419 563.503L249.445 576.719Z" fill="#32F0BE"/>
<path d="M267.352 8.42848L264.485 -1.24121L231.524 5.13168L234.391 14.8014L267.352 8.42848Z" fill="#32F0BE"/>
<path d="M922.309 969.159L916.662 958.142L905.148 971.821L910.796 982.837L922.309 969.159Z" fill="#CAB8FF"/>
<path d="M705.71 1159.02L709.558 1152.39L694.577 1143.44L690.729 1150.06L705.71 1159.02Z" fill="#FCFFA6"/>
<path d="M453.602 269.478L461.485 264.855L454.168 258.276L446.284 262.899L453.602 269.478Z" fill="#FCFFA6"/>
<path d="M397.916 1093.86L407.61 1102.23L429.366 1071.74L419.672 1063.36L397.916 1093.86Z" fill="#FCFFA6"/>
<path d="M35.2793 1057.44L33.7666 1049.79L16.091 1054.41L17.6037 1062.06L35.2793 1057.44Z" fill="#32F0BE"/>
<path d="M1306.41 270.735L1314.92 274.174L1326.26 253.951L1317.76 250.511L1306.41 270.735Z" fill="#CAB8FF"/>
<path d="M536.901 457.662L546.955 466.096L559.422 450.705L549.369 442.271L536.901 457.662Z" fill="#32F0BE"/>
<path d="M774.555 181.48L769.927 174.694L749.519 182.033L754.147 188.819L774.555 181.48Z" fill="#32F0BE"/>
<path d="M1029.8 467.379L1024.4 454.957L998.037 469.322L1003.44 481.745L1029.8 467.379Z" fill="#CAB8FF"/>
<path d="M335.979 1102.72L341.439 1087.71L322.992 1078.15L317.532 1093.15L335.979 1102.72Z" fill="#32F0BE"/>
<path d="M905.734 617.341L898.674 606.972L878.181 633.202L885.241 643.571L905.734 617.341Z" fill="#32F0BE"/>
<path d="M574.846 101.544L580.468 95.0809L567.516 74.1513L561.894 80.6143L574.846 101.544Z" fill="#32F0BE"/>
<path d="M1348.23 575.747L1345.44 565.871L1319.08 571.707L1321.87 581.582L1348.23 575.747Z" fill="#32F0BE"/>
<path d="M313.501 352.576L310.791 339.963L286.534 349.261L289.244 361.874L313.501 352.576Z" fill="#32F0BE"/>
<path d="M1036.42 538.58L1043.16 527.005L1012.89 505.942L1006.15 517.517L1036.42 538.58Z" fill="#32F0BE"/>
<path d="M1261.69 345.163L1270.81 354.609L1285.29 341.109L1276.17 331.664L1261.69 345.163Z" fill="#FCFFA6"/>
<path d="M677.111 45.8434L671.347 37.8973L660.841 45.8183L666.605 53.7644L677.111 45.8434Z" fill="#CAB8FF"/>
<path d="M40.2774 727.577L45.3828 718.652L19.0582 708.131L13.9528 717.056L40.2774 727.577Z" fill="#CAB8FF"/>
<path d="M744.898 275.383L748.486 267.666L732.405 255.592L728.817 263.31L744.898 275.383Z" fill="#CAB8FF"/>
<path d="M1130.51 501.06L1136.14 498.932L1132.42 479.571L1126.79 481.699L1130.51 501.06Z" fill="#32F0BE"/>
<path d="M688.259 136.811L697.023 138.149L698.767 127.538L690.002 126.2L688.259 136.811Z" fill="#CAB8FF"/>
<path d="M765.405 254.591L760.998 245.142L741.255 259.219L745.662 268.668L765.405 254.591Z" fill="#32F0BE"/>
<path d="M1195.6 1148.23L1194.88 1138.94L1177.53 1141.26L1178.25 1150.55L1195.6 1148.23Z" fill="#32F0BE"/>
<path d="M849.627 1310.17L855.837 1306.61L850.404 1292.25L844.194 1295.82L849.627 1310.17Z" fill="#32F0BE"/>
<path d="M1184.26 1057.43L1195.87 1060.39L1199.81 1046.62L1188.21 1043.66L1184.26 1057.43Z" fill="#FCFFA6"/>
<path d="M1134.15 1325.84L1140.89 1327.84L1144.42 1309.02L1137.69 1307.02L1134.15 1325.84Z" fill="#CAB8FF"/>
<path d="M812.238 722.673L808.942 713.573L792.41 723.176L795.705 732.276L812.238 722.673Z" fill="#32F0BE"/>
<path d="M424.859 1081.74L427.292 1069.98L409.374 1058.85L406.941 1070.61L424.859 1081.74Z" fill="#CAB8FF"/>
<path d="M440.148 4.41526L447.832 6.44556L450.134 -2.84421L442.45 -4.87451L440.148 4.41526Z" fill="#CAB8FF"/>
<path d="M529.565 1223.62L531.296 1212.05L510.189 1203.25L508.458 1214.82L529.565 1223.62Z" fill="#32F0BE"/>
<path d="M1049.97 438.821L1061.05 437.99L1058.31 397.134L1047.23 397.964L1049.97 438.821Z" fill="#FCFFA6"/>
<path d="M926.737 223.739L940.564 221.453L938.218 206.023L924.39 208.309L926.737 223.739Z" fill="#32F0BE"/>
<path d="M1140.55 1201.38L1148.29 1198.58L1142.06 1168.74L1134.31 1171.54L1140.55 1201.38Z" fill="#32F0BE"/>
<path d="M215.038 1203.96L219.873 1196.6L201.785 1184.49L196.951 1191.85L215.038 1203.96Z" fill="#32F0BE"/>
<path d="M965.895 1043.89L960.225 1033.81L925.886 1047.62L931.556 1057.7L965.895 1043.89Z" fill="#FCFFA6"/>
<path d="M874.22 724.263L873.345 710.147L844.8 712.661L845.674 726.776L874.22 724.263Z" fill="#32F0BE"/>
<path d="M922.045 160.924L932.118 159.324L929.622 137.412L919.549 139.013L922.045 160.924Z" fill="#CAB8FF"/>
<path d="M578.041 539.315L576.457 530.866L560.717 536.665L562.302 545.114L578.041 539.315Z" fill="#CAB8FF"/>
<path d="M986.606 311.502L995.721 317.105L1004.48 301.428L995.368 295.824L986.606 311.502Z" fill="#FCFFA6"/>
<path d="M1136.71 520.064L1147.15 524.354L1153.03 482.374L1142.59 478.084L1136.71 520.064Z" fill="#FCFFA6"/>
<path d="M231.284 928.933L225.33 912.235L209.376 928.033L215.331 944.731L231.284 928.933Z" fill="#CAB8FF"/>
<path d="M223.226 633.188L221.72 623.858L206.52 629.694L208.026 639.023L223.226 633.188Z" fill="#32F0BE"/>
<path d="M1194.86 1044.7L1204.88 1054.72L1218.24 1024.24L1208.22 1014.22L1194.86 1044.7Z" fill="#CAB8FF"/>
<path d="M341.137 155.968L344.345 143.972L311.653 133.966L308.445 145.962L341.137 155.968Z" fill="#CAB8FF"/>
<path d="M912.325 19.1141L911.637 8.2959L895.829 8.99174L896.517 19.8099L912.325 19.1141Z" fill="#CAB8FF"/>
<path d="M518.041 744.838L525.997 736.341L513.481 714.775L505.525 723.272L518.041 744.838Z" fill="#32F0BE"/>
<path d="M795.678 207.743L794.946 197.4L781.124 198.368L781.856 208.711L795.678 207.743Z" fill="#FCFFA6"/>
<path d="M1364.79 243.797L1371.59 246.56L1374.04 239.025L1367.24 236.262L1364.79 243.797Z" fill="#FCFFA6"/>
<path d="M546.698 181.649L552.411 188.238L559.419 177.947L553.705 171.357L546.698 181.649Z" fill="#FCFFA6"/>
<path d="M416.041 654.91L423.651 644.943L405.604 621.567L397.994 631.534L416.041 654.91Z" fill="#32F0BE"/>
<path d="M513.018 594.24L519.061 598.965L534.048 582.975L528.006 578.251L513.018 594.24Z" fill="#CAB8FF"/>
<path d="M750.668 242.582L757.4 248.288L759.963 232.891L753.231 227.184L750.668 242.582Z" fill="#CAB8FF"/>
<path d="M482.041 311.761L483.386 302.435L461.763 299.838L460.418 309.164L482.041 311.761Z" fill="#32F0BE"/>
<path d="M1061.37 763.776L1060.81 755.449L1049.95 757.762L1050.51 766.089L1061.37 763.776Z" fill="#FCFFA6"/>
<path d="M796.096 415.186L793.958 407.284L782.498 411.74L784.636 419.642L796.096 415.186Z" fill="#FCFFA6"/>
<path d="M1089.7 881.879L1099.45 877.104L1091.43 852.679L1081.67 857.454L1089.7 881.879Z" fill="#CAB8FF"/>
<path d="M1075.4 696.374L1085.6 697.402L1088.68 673.327L1078.48 672.299L1075.4 696.374Z" fill="#CAB8FF"/>
<path d="M1237.69 1333.4L1245.23 1321.96L1222.61 1296.75L1215.07 1308.19L1237.69 1333.4Z" fill="#CAB8FF"/>
<path d="M486.732 738.101L495.61 738.085L495.634 728.433L486.756 728.449L486.732 738.101Z" fill="#32F0BE"/>
<path d="M414.587 688.421L422.635 693.312L429.307 678.621L421.26 673.73L414.587 688.421Z" fill="#FCFFA6"/>
<path d="M676.562 155.59L679.213 146.222L668.301 141.546L665.651 150.914L676.562 155.59Z" fill="#32F0BE"/>
<path d="M611.616 374.712L623.647 374.47L623.074 357.52L611.042 357.762L611.616 374.712Z" fill="#32F0BE"/>
<path d="M520.807 515.68L528.445 507.683L521.807 490.44L514.168 498.437L520.807 515.68Z" fill="#FCFFA6"/>
<path d="M216.023 337.175L216.942 327.213L204.656 325.19L203.737 335.152L216.023 337.175Z" fill="#32F0BE"/>
<path d="M1336.43 207.105L1341.84 200.17L1325 182.734L1319.6 189.668L1336.43 207.105Z" fill="#CAB8FF"/>
<path d="M1155.4 1188.05L1161.61 1194.03L1175.56 1171.95L1169.36 1165.96L1155.4 1188.05Z" fill="#CAB8FF"/>
<path d="M906.352 100.05L913.974 94.4172L904.153 63.8034L896.531 69.4366L906.352 100.05Z" fill="#FCFFA6"/>
<path d="M978.374 157.93L992.54 159.399L995.217 134.231L981.051 132.762L978.374 157.93Z" fill="#32F0BE"/>
<path d="M1346.87 607.191L1342.69 596.62L1308.85 606.158L1313.03 616.729L1346.87 607.191Z" fill="#32F0BE"/>
<path d="M789.012 298.937L795.367 298.493L793.708 279.058L787.353 279.502L789.012 298.937Z" fill="#32F0BE"/>
<path d="M603.921 1377.17L612.415 1383.24L619.204 1365.5L610.71 1359.42L603.921 1377.17Z" fill="#CAB8FF"/>
<path d="M1153.06 366.045L1164.59 357.988L1152.33 333.932L1140.8 341.989L1153.06 366.045Z" fill="#FCFFA6"/>
<path d="M225.154 770.767L221.683 757.487L212.378 763.277L215.849 776.557L225.154 770.767Z" fill="#32F0BE"/>
<path d="M638.046 1349.88L645.767 1349.21L644.629 1336.34L636.907 1337.01L638.046 1349.88Z" fill="#FCFFA6"/>
<path d="M87.5535 921.96L95.5991 927.591L111.392 905.045L103.346 899.414L87.5535 921.96Z" fill="#FCFFA6"/>
<path d="M459.364 737.742L467.68 731.058L455.829 711.685L447.512 718.369L459.364 737.742Z" fill="#32F0BE"/>
<path d="M329.935 238.936L334.472 228.26L309.833 211.96L305.296 222.636L329.935 238.936Z" fill="#32F0BE"/>
<path d="M80.5255 1248.71L85.1055 1240.4L75.99 1227.69L71.41 1236L80.5255 1248.71Z" fill="#32F0BE"/>
<path d="M935.344 1328.03L933.554 1319.7L915.889 1323.1L917.678 1331.43L935.344 1328.03Z" fill="#CAB8FF"/>
<path d="M512.219 69.3316L522.928 75.6182L530.797 65.4662L520.088 59.1795L512.219 69.3316Z" fill="#32F0BE"/>
<path d="M226.698 487.942L234.276 493.298L247.1 465.257L239.522 459.901L226.698 487.942Z" fill="#32F0BE"/>
<path d="M852.296 37.2471L855.295 27.9963L826.071 21.8897L823.072 31.1405L852.296 37.2471Z" fill="#32F0BE"/>
<path d="M280.381 939.943L291.49 940.502L292.608 920.012L281.499 919.453L280.381 939.943Z" fill="#32F0BE"/>
<path d="M648.369 535.14L652.336 522.498L638.271 514.029L634.304 526.671L648.369 535.14Z" fill="#32F0BE"/>
<path d="M863.979 485.482L861.085 476.475L845.628 484.626L848.522 493.633L863.979 485.482Z" fill="#CAB8FF"/>
<path d="M932.147 534.773L934.523 524.059L910.523 513.934L908.147 524.648L932.147 534.773Z" fill="#CAB8FF"/>
<path d="M1379.77 607.973L1388.08 610.63L1394.56 591.952L1386.25 589.295L1379.77 607.973Z" fill="#32F0BE"/>
<path d="M1159.15 1337.48L1165.03 1329.4L1157.45 1319.71L1151.56 1327.79L1159.15 1337.48Z" fill="#CAB8FF"/>
<path d="M314.942 465.027L317.64 455.907L309.401 451.995L306.703 461.115L314.942 465.027Z" fill="#FCFFA6"/>
<path d="M657.748 711.863L665.821 714.87L670.918 701.379L662.844 698.371L657.748 711.863Z" fill="#CAB8FF"/>
<path d="M228.201 418.199L234.191 412.762L222.987 386.098L216.997 391.535L228.201 418.199Z" fill="#32F0BE"/>
<path d="M604.439 1079.6L615.818 1087.47L627.531 1063.9L616.152 1056.03L604.439 1079.6Z" fill="#32F0BE"/>
<path d="M517.509 7.84319L527.277 4.19702L519.451 -29.5074L509.683 -25.8612L517.509 7.84319Z" fill="#32F0BE"/>
<path d="M529.343 361.724L542.069 358.2L535.338 323.074L522.613 326.599L529.343 361.724Z" fill="#32F0BE"/>
<path d="M883.281 395.09L880.058 381.205L866.511 385.447L869.735 399.332L883.281 395.09Z" fill="#FCFFA6"/>
<path d="M1171.83 776.934L1164.32 768.883L1147.67 792.687L1155.18 800.738L1171.83 776.934Z" fill="#FCFFA6"/>
<path d="M847.7 833.572L850.117 823.788L831.495 818.776L829.079 828.559L847.7 833.572Z" fill="#32F0BE"/>
<path d="M310.273 415.671L314.882 407.911L298.413 396.132L293.804 403.892L310.273 415.671Z" fill="#CAB8FF"/>
<path d="M543.227 1168.42L555.376 1168.31L555.814 1124.38L543.664 1124.49L543.227 1168.42Z" fill="#32F0BE"/>
<path d="M806.719 873.501L809.973 863.292L793.781 858.801L790.527 869.01L806.719 873.501Z" fill="#FCFFA6"/>
<path d="M1196.97 930.849L1200.6 921.289L1178.35 911.395L1174.72 920.955L1196.97 930.849Z" fill="#32F0BE"/>
<path d="M1153.4 571.978L1160.05 561.774L1145.09 550.948L1138.43 561.151L1153.4 571.978Z" fill="#FCFFA6"/>
<path d="M1078.02 453.851L1085.54 457.553L1091.66 441.485L1084.14 437.784L1078.02 453.851Z" fill="#32F0BE"/>
<path d="M730.865 1336.7L732.385 1328.11L719.443 1325.83L717.924 1334.42L730.865 1336.7Z" fill="#32F0BE"/>
<path d="M184.653 652.168L184.304 643.026L170.764 644.361L171.114 653.504L184.653 652.168Z" fill="#32F0BE"/>
<path d="M360.317 246.584L368.112 245.371L365.691 219.917L357.896 221.13L360.317 246.584Z" fill="#FCFFA6"/>
<path d="M119.584 1301.57L129.938 1291.28L113.853 1267.89L103.5 1278.18L119.584 1301.57Z" fill="#32F0BE"/>
<path d="M827.87 852.735L835.655 845.212L814.411 830.215L806.626 837.739L827.87 852.735Z" fill="#CAB8FF"/>
<path d="M291.132 229.105L284.979 220.779L262.408 229.299L268.56 237.624L291.132 229.105Z" fill="#32F0BE"/>
<path d="M945.897 762.206L956.413 770.457L969.748 757.587L959.232 749.336L945.897 762.206Z" fill="#CAB8FF"/>
<path d="M468.995 140.214L477.428 148.037L488.017 110.704L479.584 102.881L468.995 140.214Z" fill="#32F0BE"/>
<path d="M953.508 1228.3L958.136 1234.45L968.328 1222.74L963.701 1216.59L953.508 1228.3Z" fill="#FCFFA6"/>
<path d="M475.284 411.687L483.657 409.374L482.153 395.663L473.78 397.976L475.284 411.687Z" fill="#32F0BE"/>
<path d="M183.058 898.436L182.686 887.153L174.16 888.111L174.532 899.394L183.058 898.436Z" fill="#CAB8FF"/>
<path d="M197.952 339.834L203.525 328.028L194.104 319.601L188.53 331.407L197.952 339.834Z" fill="#CAB8FF"/>
<path d="M1276.78 460.129L1286.59 458.997L1284.35 423.665L1274.54 424.797L1276.78 460.129Z" fill="#32F0BE"/>
<path d="M1065.82 1000.43L1065.39 989.977L1043.72 991.049L1044.15 1001.5L1065.82 1000.43Z" fill="#32F0BE"/>
<path d="M738.526 736.489L742.338 728.125L724.897 716.096L721.085 724.46L738.526 736.489Z" fill="#32F0BE"/>
<path d="M816.725 892.792L826.385 882.401L808.797 860.743L799.137 871.135L816.725 892.792Z" fill="#CAB8FF"/>
<path d="M698.626 559.917L703.83 546.329L685.733 532.48L680.529 546.069L698.626 559.917Z" fill="#CAB8FF"/>
<path d="M984.491 987.155L982.61 979.719L969.995 983.057L971.876 990.493L984.491 987.155Z" fill="#FCFFA6"/>
<path d="M442.552 1356.89L452.716 1348.13L436.232 1326.77L426.068 1335.54L442.552 1356.89Z" fill="#32F0BE"/>
<path d="M613.457 936.855L620.904 938.91L624.292 927.536L616.845 925.481L613.457 936.855Z" fill="#32F0BE"/>
<path d="M67.8196 809.868L70.9604 795.14L49.9872 779.584L46.8464 794.313L67.8196 809.868Z" fill="#FCFFA6"/>
<path d="M1047.81 693.553L1046.59 679.109L1012.09 682.23L1013.31 696.673L1047.81 693.553Z" fill="#FCFFA6"/>
<path d="M1088.75 1259.32L1094.93 1266.99L1104.97 1253.27L1098.8 1245.61L1088.75 1259.32Z" fill="#CAB8FF"/>
<path d="M1164.88 1152.74L1162.31 1145.1L1144.21 1153.17L1146.77 1160.81L1164.88 1152.74Z" fill="#32F0BE"/>
<path d="M1353.15 773.478L1362.36 773.135L1359.59 728.626L1350.38 728.969L1353.15 773.478Z" fill="#FCFFA6"/>
<path d="M843.172 629.137L848.383 616.849L833.386 610.706L828.175 622.994L843.172 629.137Z" fill="#CAB8FF"/>
<path d="M538.408 47.3666L532.355 35.6681L522.786 45.5069L528.839 57.2054L538.408 47.3666Z" fill="#FCFFA6"/>
<path d="M1043.45 481.685L1051.77 483.993L1055.63 470.129L1047.31 467.821L1043.45 481.685Z" fill="#FCFFA6"/>
<path d="M681.059 1372.91L676.961 1362.98L649.902 1373.72L654.001 1383.66L681.059 1372.91Z" fill="#32F0BE"/>
<path d="M1271.8 1138.2L1276.58 1144.12L1286.08 1134.95L1281.29 1129.03L1271.8 1138.2Z" fill="#32F0BE"/>
<path d="M176.278 1061.01L171.541 1049.97L155.615 1061.06L160.352 1072.09L176.278 1061.01Z" fill="#32F0BE"/>
<path d="M1427.63 293.434L1434.57 281.947L1419.7 271.217L1412.76 282.703L1427.63 293.434Z" fill="#FCFFA6"/>
<path d="M1102.5 579.969L1109.59 574.64L1103.48 565.785L1096.39 571.114L1102.5 579.969Z" fill="#32F0BE"/>
<path d="M1133.1 636.732L1131.48 628.778L1116.88 634.469L1118.51 642.423L1133.1 636.732Z" fill="#FCFFA6"/>
<path d="M866.687 28.1908L860.195 18.6936L851.897 30.5445L858.389 40.0417L866.687 28.1908Z" fill="#32F0BE"/>
<path d="M462.911 1236.39L472.319 1241.53L480.488 1224.31L471.08 1219.16L462.911 1236.39Z" fill="#32F0BE"/>
<path d="M1158.23 1054.02L1155.2 1041.98L1134.71 1047.84L1137.73 1059.89L1158.23 1054.02Z" fill="#32F0BE"/>
<path d="M1334.41 543.839L1331.65 533.544L1303.12 537.496L1305.88 547.79L1334.41 543.839Z" fill="#CAB8FF"/>
<path d="M385.665 632.668L381.773 619.964L370.291 626.547L374.183 639.251L385.665 632.668Z" fill="#32F0BE"/>
<path d="M1216.14 683.228L1215.7 672.168L1197.47 671.506L1197.91 682.566L1216.14 683.228Z" fill="#CAB8FF"/>
<path d="M883.796 887.297L896.797 880.823L881.792 853.302L868.791 859.776L883.796 887.297Z" fill="#32F0BE"/>
<path d="M363.749 100.582L366.57 91.9243L346.01 83.6437L343.189 92.3017L363.749 100.582Z" fill="#CAB8FF"/>
<path d="M542.169 316.91L541.317 303.797L511.674 306.052L512.526 319.164L542.169 316.91Z" fill="#CAB8FF"/>
<path d="M803.974 780.275L813.665 781.944L815.771 761.249L806.079 759.58L803.974 780.275Z" fill="#32F0BE"/>
<path d="M1117.45 1156.17L1120.52 1147.37L1104 1138.57L1100.93 1147.37L1117.45 1156.17Z" fill="#FCFFA6"/>
<path d="M314.136 844.113L320.423 842.029L315.387 818.407L309.1 820.491L314.136 844.113Z" fill="#32F0BE"/>
<path d="M1402.95 1209.15L1409.68 1203.68L1402.21 1180.86L1395.48 1186.34L1402.95 1209.15Z" fill="#CAB8FF"/>
<path d="M1019.25 1190.9L1013.62 1178.61L994.804 1188.84L1000.43 1201.13L1019.25 1190.9Z" fill="#CAB8FF"/>
<path d="M311.7 1229.52L317.353 1222.8L304.202 1209.65L298.55 1216.37L311.7 1229.52Z" fill="#32F0BE"/>
<path d="M657.981 155.839L659.623 142.78L630.861 137.451L629.219 150.51L657.981 155.839Z" fill="#32F0BE"/>
<path d="M710.132 1369.9L704.237 1356.46L682.396 1367.8L688.29 1381.24L710.132 1369.9Z" fill="#CAB8FF"/>
<path d="M224.653 896.505L218.479 882.813L206.507 896.001L212.681 909.694L224.653 896.505Z" fill="#32F0BE"/>
<path d="M1120.19 541.616L1121 533.93L1100.49 532.286L1099.68 539.972L1120.19 541.616Z" fill="#32F0BE"/>
<path d="M925.5 504.012L925.683 495.706L915.67 495.213L915.487 503.518L925.5 504.012Z" fill="#32F0BE"/>
<path d="M1310.11 464.037L1316.23 456.463L1301.7 446.247L1295.58 453.822L1310.11 464.037Z" fill="#FCFFA6"/>
<path d="M1073.18 1021.23L1065.77 1011.16L1047.63 1032.99L1055.03 1043.06L1073.18 1021.23Z" fill="#FCFFA6"/>
<path d="M1060.88 1088.3L1070.97 1087L1068.14 1056.36L1058.05 1057.66L1060.88 1088.3Z" fill="#32F0BE"/>
<path d="M789.76 1364.46L801.447 1367.61L810.463 1336.01L798.775 1332.86L789.76 1364.46Z" fill="#FCFFA6"/>
<path d="M780.228 828.039L785.587 816.357L763.899 796.875L758.541 808.557L780.228 828.039Z" fill="#FCFFA6"/>
<path d="M768.947 154.824L771.926 144.95L747.18 136.226L744.201 146.1L768.947 154.824Z" fill="#32F0BE"/>
<path d="M306.657 976.501L312.584 981.303L320.309 972.095L314.381 967.294L306.657 976.501Z" fill="#32F0BE"/>
<path d="M921.04 1362.51L929.663 1359.34L926.499 1346.79L917.876 1349.96L921.04 1362.51Z" fill="#CAB8FF"/>
<path d="M175.535 635.861L183.022 643.067L197.734 613.831L190.246 606.626L175.535 635.861Z" fill="#FCFFA6"/>
<path d="M1223.5 872.225L1225.92 860.862L1212.01 856.817L1209.59 868.181L1223.5 872.225Z" fill="#FCFFA6"/>
<path d="M128.989 1057.76L134.953 1043.29L115.166 1025.57L109.202 1040.04L128.989 1057.76Z" fill="#FCFFA6"/>
<path d="M1009.3 496.618L1016.74 502.121L1021.79 485.588L1014.35 480.085L1009.3 496.618Z" fill="#32F0BE"/>
<path d="M420.997 900.721L429.676 897.578L426.557 880.074L417.878 883.216L420.997 900.721Z" fill="#32F0BE"/>
<path d="M1160.95 732.787L1170.9 740.786L1179.56 723.095L1169.61 715.096L1160.95 732.787Z" fill="#32F0BE"/>
<path d="M325.355 906.645L325.194 892.537L309.257 891.745L309.418 905.853L325.355 906.645Z" fill="#32F0BE"/>
<path d="M1023.86 389.848L1030.74 395.964L1038.8 376.458L1031.92 370.342L1023.86 389.848Z" fill="#32F0BE"/>
<path d="M945.816 38.9932L940.315 31.9888L927.187 46.6212L932.688 53.6256L945.816 38.9932Z" fill="#CAB8FF"/>
<path d="M1348.16 1013.8L1358.11 1008.66L1342.24 982.972L1332.3 988.111L1348.16 1013.8Z" fill="#FCFFA6"/>
<path d="M1055.32 940.668L1061.41 938.344L1057.46 920.657L1051.37 922.981L1055.32 940.668Z" fill="#CAB8FF"/>
<path d="M1196.6 163.708L1206.41 165.787L1209.34 143.14L1199.53 141.061L1196.6 163.708Z" fill="#CAB8FF"/>
<path d="M1290.15 317.295L1287.94 306.419L1257.23 313.239L1259.44 324.115L1290.15 317.295Z" fill="#FCFFA6"/>
<path d="M989.401 728.349L996.483 721.738L974.783 706.891L967.7 713.502L989.401 728.349Z" fill="#32F0BE"/>
<path d="M983.673 1070.21L990.097 1064.44L980.531 1049.2L974.107 1054.98L983.673 1070.21Z" fill="#32F0BE"/>
<path d="M335.482 665.649L342.817 671.771L349.436 656.731L342.1 650.608L335.482 665.649Z" fill="#CAB8FF"/>
<path d="M457.648 841.885L463.935 832.876L453.715 816.983L447.428 825.992L457.648 841.885Z" fill="#32F0BE"/>
<path d="M585.846 837.097L582.218 826.942L563.495 837.068L567.123 847.224L585.846 837.097Z" fill="#32F0BE"/>
<path d="M619.823 69.9625L624.229 63.6882L612.033 54.5181L607.627 60.7924L619.823 69.9625Z" fill="#32F0BE"/>
<path d="M668.419 292.909L675.523 294.09L678.503 273.386L671.399 272.206L668.419 292.909Z" fill="#FCFFA6"/>
<path d="M267.604 1015.86L268.597 1004.21L259.564 1002.04L258.57 1013.69L267.604 1015.86Z" fill="#32F0BE"/>
<path d="M506.206 1007.5L520.387 1004.57L510.453 971.906L496.272 974.829L506.206 1007.5Z" fill="#32F0BE"/>
<path d="M592.171 352.449L588.75 345.455L578.793 351.895L582.215 358.889L592.171 352.449Z" fill="#FCFFA6"/>
<path d="M184.98 448.141L194.994 442.594L187.467 424.322L177.454 429.869L184.98 448.141Z" fill="#32F0BE"/>
<path d="M1126.85 199.331L1138.45 207.04L1146.57 193.578L1134.97 185.87L1126.85 199.331Z" fill="#32F0BE"/>
<path d="M419.744 1084.71L430.524 1082.83L426.708 1054.01L415.928 1055.89L419.744 1084.71Z" fill="#FCFFA6"/>
<path d="M-2.28402 262.946L4.96582 267.406L9.10529 259.462L1.85545 255.002L-2.28402 262.946Z" fill="#CAB8FF"/>
<path d="M100.613 1002.79L102.54 987.079L78.8063 977.863L76.8793 993.572L100.613 1002.79Z" fill="#32F0BE"/>
<path d="M582.767 576.225L591.706 584.27L610.455 565.584L601.516 557.54L582.767 576.225Z" fill="#32F0BE"/>
<path d="M1034.42 640.603L1038.1 627.292L1026.3 623.052L1022.62 636.364L1034.42 640.603Z" fill="#32F0BE"/>
<path d="M1027.7 415.596L1027.62 402.4L1014.62 402.427L1014.71 415.622L1027.7 415.596Z" fill="#32F0BE"/>
<path d="M311.107 899.263L309.766 885.726L289.717 887.966L291.059 901.503L311.107 899.263Z" fill="#CAB8FF"/>
<path d="M988.583 1039L994.016 1044.24L1002.55 1026.32L997.118 1021.07L988.583 1039Z" fill="#FCFFA6"/>
<path d="M655.884 1029.54L660.311 1023.63L654.932 1013.91L650.505 1019.83L655.884 1029.54Z" fill="#CAB8FF"/>
<path d="M786.758 21.0539L788.594 8.57446L758.968 5.10559L757.132 17.585L786.758 21.0539Z" fill="#32F0BE"/>
<path d="M183.747 1035.49L186.838 1021.64L167.741 1012.95L164.65 1026.8L183.747 1035.49Z" fill="#FCFFA6"/>
<path d="M979.28 877.906L991.661 882.975L998.582 860.509L986.202 855.439L979.28 877.906Z" fill="#CAB8FF"/>
<path d="M431.111 997.137L437.711 990.045L429.014 984.761L422.414 991.853L431.111 997.137Z" fill="#FCFFA6"/>
<path d="M1232.5 402.331L1230.8 390.116L1210.68 393.346L1212.37 405.561L1232.5 402.331Z" fill="#CAB8FF"/>
<path d="M1353.9 1185.25L1356.49 1170.36L1338.38 1162.89L1335.79 1177.78L1353.9 1185.25Z" fill="#CAB8FF"/>
<path d="M489.47 480.348L498.082 471.743L485.928 448.525L477.316 457.13L489.47 480.348Z" fill="#32F0BE"/>
<path d="M1256.61 673.144L1255.3 660.392L1231.97 665.719L1233.28 678.47L1256.61 673.144Z" fill="#CAB8FF"/>
<path d="M694.893 1128.66L696.882 1118.91L683.008 1116.52L681.018 1126.26L694.893 1128.66Z" fill="#32F0BE"/>
<path d="M615.446 1072.36L609.646 1061.03L598.228 1080.16L604.027 1091.49L615.446 1072.36Z" fill="#FCFFA6"/>
<path d="M756.247 1203.08L770.673 1198.81L757.838 1166.71L743.411 1170.97L756.247 1203.08Z" fill="#32F0BE"/>
<path d="M375.279 1169.15L372.977 1157.86L345.133 1167.61L347.435 1178.91L375.279 1169.15Z" fill="#32F0BE"/>
<path d="M584.84 969.18L580.76 956.168L554.009 971.581L558.09 984.593L584.84 969.18Z" fill="#32F0BE"/>
<path d="M1331.59 880.811L1337.42 877.827L1335.09 869.084L1329.25 872.068L1331.59 880.811Z" fill="#32F0BE"/>
<path d="M777.743 1325.42L786.063 1316.3L768.891 1275.95L760.571 1285.07L777.743 1325.42Z" fill="#CAB8FF"/>
<path d="M669.467 908.863L676.777 912.886L682.66 882.111L675.35 878.089L669.467 908.863Z" fill="#FCFFA6"/>
<path d="M1104.16 708.876L1116.59 712.856L1126.78 680.003L1114.36 676.023L1104.16 708.876Z" fill="#CAB8FF"/>
<path d="M374.782 995.586L380.626 989.097L369.884 979.764L364.04 986.253L374.782 995.586Z" fill="#FCFFA6"/>
<path d="M927.954 1409.08L939.269 1407.62L936.208 1374.05L924.893 1375.51L927.954 1409.08Z" fill="#32F0BE"/>
<path d="M382.708 522.749L382.509 510.925L352.262 511.46L352.461 523.285L382.708 522.749Z" fill="#32F0BE"/>
<path d="M316.653 644.74L321.885 630.875L295.906 611.185L290.674 625.051L316.653 644.74Z" fill="#FCFFA6"/>
<path d="M411.261 797.574L416.443 789.165L405.583 771.386L400.401 779.795L411.261 797.574Z" fill="#FCFFA6"/>
<path d="M1108.42 614.69L1113.68 604.509L1091.09 584.199L1085.82 594.38L1108.42 614.69Z" fill="#32F0BE"/>
<path d="M886.666 1304.91L883.533 1297.17L877.172 1302.66L880.305 1310.4L886.666 1304.91Z" fill="#32F0BE"/>
<path d="M370.685 521.625L383.456 518.555L377.776 476.897L365.005 479.967L370.685 521.625Z" fill="#32F0BE"/>
<path d="M769.231 384.942L773.385 376.266L760.695 363.577L756.541 372.253L769.231 384.942Z" fill="#CAB8FF"/>
<path d="M1168.18 568.661L1164.51 562.199L1156.41 566.047L1160.08 572.509L1168.18 568.661Z" fill="#32F0BE"/>
<path d="M1248.05 780.906L1253.57 766.046L1236.5 758.106L1230.98 772.966L1248.05 780.906Z" fill="#32F0BE"/>
<path d="M125.018 311.73L128.291 301.701L112.36 294.472L109.086 304.502L125.018 311.73Z" fill="#32F0BE"/>
<path d="M381.275 741.032L393.626 742.6L395.148 716.158L382.797 714.59L381.275 741.032Z" fill="#32F0BE"/>
<path d="M287.85 760.569L287.078 747.758L277.916 748.922L278.687 761.733L287.85 760.569Z" fill="#CAB8FF"/>
<path d="M880.461 1251.31L877.194 1242.24L868.661 1251.77L871.928 1260.84L880.461 1251.31Z" fill="#CAB8FF"/>
<path d="M1290.92 418.54L1287.65 410.449L1274.13 413.173L1277.4 421.264L1290.92 418.54Z" fill="#32F0BE"/>
<path d="M320.082 1154.23L325.393 1142.44L308.243 1120.68L302.932 1132.48L320.082 1154.23Z" fill="#32F0BE"/>
<path d="M513.462 1302L522.477 1298.41L515.121 1278.58L506.106 1282.16L513.462 1302Z" fill="#32F0BE"/>
<path d="M1115.75 1116.24L1122.36 1106.52L1111.15 1093.94L1104.55 1103.66L1115.75 1116.24Z" fill="#FCFFA6"/>
<path d="M805.574 414.264L815.055 414.624L815.378 404.452L805.896 404.093L805.574 414.264Z" fill="#FCFFA6"/>
<path d="M40.4203 720.352L36.0386 713.914L19.6908 728.104L24.0725 734.542L40.4203 720.352Z" fill="#CAB8FF"/>
<path d="M413.712 1113.11L415.082 1104.8L402.519 1101.87L401.148 1110.19L413.712 1113.11Z" fill="#32F0BE"/>
<path d="M811.107 620.121L809.63 608.632L797.397 610.743L798.874 622.232L811.107 620.121Z" fill="#32F0BE"/>
<path d="M174.305 1175.57L180.125 1161.87L165.245 1153.89L159.424 1167.58L174.305 1175.57Z" fill="#32F0BE"/>
<path d="M878.907 45.0909L877.854 35.8298L868.828 37.8246L869.881 47.0858L878.907 45.0909Z" fill="#CAB8FF"/>
<path d="M1031.52 636.047L1037.04 645.085L1043.56 634.325L1038.03 625.287L1031.52 636.047Z" fill="#FCFFA6"/>
<path d="M878.451 568.843L888.307 564.785L879.173 539.258L869.317 543.316L878.451 568.843Z" fill="#CAB8FF"/>
<path d="M225.695 1053.81L232.871 1052.05L230.976 1042.09L223.8 1043.84L225.695 1053.81Z" fill="#FCFFA6"/>
<path d="M153.559 910.18L160.569 903.415L155.438 894.593L148.428 901.359L153.559 910.18Z" fill="#CAB8FF"/>
<path d="M1127.98 882.037L1125.27 872.499L1104.87 876.007L1107.58 885.545L1127.98 882.037Z" fill="#32F0BE"/>
<path d="M293.046 592.19L289.106 584.631L277.89 589.756L281.829 597.315L293.046 592.19Z" fill="#32F0BE"/>
<path d="M1310 889.544L1319.81 898.058L1331.19 879.968L1321.38 871.455L1310 889.544Z" fill="#CAB8FF"/>
<path d="M1074.33 236.218L1086.39 228.654L1077.35 213.578L1065.29 221.142L1074.33 236.218Z" fill="#CAB8FF"/>
<path d="M1007.94 364.954L1019.04 367.983L1020.58 341.62L1009.47 338.591L1007.94 364.954Z" fill="#32F0BE"/>
<path d="M1140.19 317.403L1145.54 312.06L1128.87 298.993L1123.52 304.336L1140.19 317.403Z" fill="#32F0BE"/>
<path d="M83.2103 577.727L90.7935 579.76L92.9647 572.693L85.3815 570.661L83.2103 577.727Z" fill="#32F0BE"/>
<path d="M1162.89 501.548L1157.9 490.563L1138.82 508.828L1143.8 519.813L1162.89 501.548Z" fill="#FCFFA6"/>
<path d="M246.125 1010.61L240.015 997.839L229.162 1005.8L235.272 1018.57L246.125 1010.61Z" fill="#32F0BE"/>
<path d="M1312.16 565.863L1308.03 550.761L1294.95 555.888L1299.08 570.991L1312.16 565.863Z" fill="#32F0BE"/>
<path d="M457.89 1346.62L453.929 1335.46L436.201 1346.16L440.162 1357.32L457.89 1346.62Z" fill="#CAB8FF"/>
<path d="M700.046 104.437L698.897 92.3502L681.213 94.4518L682.361 106.538L700.046 104.437Z" fill="#CAB8FF"/>
<path d="M1218.75 870.195L1218.08 860.371L1207.48 861.555L1208.14 871.38L1218.75 870.195Z" fill="#32F0BE"/>
<path d="M49.2696 321.063L45.3687 314.148L36.4612 321.856L40.3622 328.771L49.2696 321.063Z" fill="#CAB8FF"/>
<path d="M676.68 1028L688.186 1028.65L688.979 1006.11L677.474 1005.46L676.68 1028Z" fill="#CAB8FF"/>
<path d="M1397.88 910.409L1402.79 901.424L1392.78 895.656L1387.87 904.641L1397.88 910.409Z" fill="#32F0BE"/>
<path d="M330.418 293.37L330.601 279.029L296.283 278.233L296.1 292.573L330.418 293.37Z" fill="#CAB8FF"/>
<path d="M715.49 412.445L727.878 418.172L742.778 380.71L730.39 374.982L715.49 412.445Z" fill="#FCFFA6"/>
<path d="M102.913 899.375L109.093 903.866L121.246 888.332L115.066 883.841L102.913 899.375Z" fill="#32F0BE"/>
<path d="M291.389 802.158L298.521 807.004L304.448 782.266L297.315 777.419L291.389 802.158Z" fill="#FCFFA6"/>
<path d="M1316.48 506.038L1323.63 503.053L1319.55 486.021L1312.41 489.005L1316.48 506.038Z" fill="#CAB8FF"/>
<path d="M841.399 1047.62L841.637 1034.1L825.454 1033.81L825.216 1047.32L841.399 1047.62Z" fill="#32F0BE"/>
<path d="M863.345 1372.01L875.855 1378.23L883.523 1362.04L871.012 1355.82L863.345 1372.01Z" fill="#32F0BE"/>
<path d="M56.6878 384.556L62.1885 375.633L50.0758 359.957L44.5752 368.879L56.6878 384.556Z" fill="#32F0BE"/>
</svg>
