<svg width="60" height="60" viewBox="0 0 60 60" fill="none" xmlns="http://www.w3.org/2000/svg">
<path d="M60 0H0V60H60V0Z" fill="url(#paint0_linear_8_169)"/>
<path d="M24.5529 45.2642C23.2444 46.1599 21.3993 46.6058 19.0134 46.6058C16.7926 46.6058 15.0424 46.2248 13.7628 45.4587C12.5121 44.6927 11.6081 43.6145 11.0508 42.2202C10.4936 40.826 10.2129 38.925 10.2129 36.5134V24.1633C10.2129 20.8559 10.7784 18.4362 11.9136 16.9041C13.3088 14.9991 15.6781 14.0425 19.0175 14.0425C21.2383 14.0425 22.9885 14.4235 24.2681 15.1896C25.5188 15.9556 26.4228 17.0378 26.9801 18.4402C27.5373 19.8426 27.818 21.7476 27.818 24.1593V36.5093C27.818 38.921 27.5167 40.8786 26.914 42.3824L29.3618 44.7211L26.6044 47.234L24.5529 45.2642ZM21.2011 42.0379L17.2508 38.2684L20.0082 35.7757L22.7656 38.3981C22.8234 37.6766 22.8523 36.8944 22.8523 36.0594V24.597C22.8523 22.157 22.5674 20.4506 22.0019 19.486C21.4364 18.5173 20.4375 18.0349 19.0134 18.0349C17.4118 18.0349 16.3138 18.7159 15.7277 20.0696C15.3603 20.937 15.1745 22.4448 15.1745 24.597V36.0594C15.1745 38.3981 15.4098 40.0113 15.8804 40.8908C16.483 42.046 17.5274 42.6256 19.0134 42.6256C19.9091 42.6256 20.6398 42.431 21.197 42.0419L21.2011 42.0379Z" fill="white"/>
<path d="M37.8141 45.9574V34.7147L30.6382 14.0425H35.6696L40.2127 28.7115L44.7557 14.0425H49.7871L42.5914 34.7147V45.9574H37.8141Z" fill="white"/>
<defs>
<linearGradient id="paint0_linear_8_169" x1="-2" y1="5.52336e-07" x2="60" y2="60" gradientUnits="userSpaceOnUse">
<stop stop-color="#23D975"/>
<stop offset="1" stop-color="#50A0FA"/>
</linearGradient>
</defs>
</svg>
